<svg width="65" height="65" viewBox="0 0 65 65" fill="none" xmlns="http://www.w3.org/2000/svg">
<circle cx="32.3664" cy="32.3894" r="32.1135" fill="#815AF0"/>
<g clip-path="url(#clip0_41_201)">
<path d="M47.9508 16.8052C48.4101 16.8052 48.8505 16.9876 49.1753 17.3124C49.5 17.6371 49.6825 18.0775 49.6825 18.5368V46.2426C49.6825 46.7018 49.5 47.1423 49.1753 47.467C48.8505 47.7918 48.4101 47.9742 47.9508 47.9742H16.7818C16.3226 47.9742 15.8821 47.7918 15.5574 47.467C15.2326 47.1423 15.0502 46.7018 15.0502 46.2426V18.5368C15.0502 18.0775 15.2326 17.6371 15.5574 17.3124C15.8821 16.9876 16.3226 16.8052 16.7818 16.8052H47.9508ZM27.8624 25.4632H24.3992L18.858 39.3161H22.5879L23.2806 37.5845H28.9776L29.6702 39.3161H33.4018L27.8624 25.4632ZM44.4876 25.4632H41.0244V28.9265H39.2928C37.9406 28.9252 36.6411 29.4512 35.6706 30.3927C34.7 31.3343 34.1349 32.6172 34.0952 33.9689C34.0555 35.3205 34.5444 36.6344 35.4581 37.6312C36.3717 38.6281 37.638 39.2295 38.988 39.3075L39.2928 39.3161H44.4876V25.4632ZM41.0244 32.3897V35.8529H39.2928L39.0902 35.8408C38.6693 35.7907 38.2814 35.5881 38 35.2712C37.7185 34.9543 37.5631 34.5451 37.5631 34.1213C37.5631 33.6975 37.7185 33.2884 38 32.9715C38.2814 32.6546 38.6693 32.4519 39.0902 32.4018L39.2928 32.3897H41.0244ZM26.1308 30.4589L27.594 34.1213H24.6641L26.1308 30.4589Z" fill="white"/>
</g>
<defs>
<clipPath id="clip0_41_201">
<rect width="41.5587" height="41.5587" fill="white" transform="translate(11.5872 11.6104)"/>
</clipPath>
</defs>
</svg>
