<svg width="65" height="66" viewBox="0 0 65 66" fill="none" xmlns="http://www.w3.org/2000/svg">
<circle cx="32.6944" cy="32.9177" r="32.1135" fill="#815AF0"/>
<g clip-path="url(#clip0_7_123)">
<path d="M45.3334 46.333C45.3334 46.7751 45.1578 47.199 44.8453 47.5115C44.5327 47.8241 44.1088 47.9997 43.6668 47.9997H20.3334C19.8914 47.9997 19.4675 47.8241 19.1549 47.5115C18.8423 47.199 18.6667 46.7751 18.6667 46.333V31.333H13.6667L30.8784 15.6864C31.1853 15.4072 31.5852 15.2524 32.0001 15.2524C32.4149 15.2524 32.8149 15.4072 33.1218 15.6864L50.3334 31.333H45.3334V46.333ZM32.0001 41.333L37.5984 35.7347C37.9466 35.3865 38.2229 34.9731 38.4113 34.5181C38.5998 34.0631 38.6968 33.5755 38.6968 33.083C38.6968 32.5906 38.5998 32.1029 38.4113 31.648C38.2229 31.193 37.9466 30.7796 37.5984 30.4314C37.2502 30.0831 36.8368 29.8069 36.3818 29.6185C35.9268 29.43 35.4392 29.333 34.9468 29.333C34.4543 29.333 33.9667 29.43 33.5117 29.6185C33.0567 29.8069 32.6433 30.0831 32.2951 30.4314L32.0001 30.7264L31.7051 30.4314C31.3569 30.0831 30.9435 29.8069 30.4885 29.6185C30.0335 29.43 29.5459 29.333 29.0534 29.333C28.561 29.333 28.0733 29.43 27.6183 29.6185C27.1634 29.8069 26.75 30.0831 26.4017 30.4314C26.0535 30.7796 25.7773 31.193 25.5888 31.648C25.4004 32.1029 25.3034 32.5906 25.3034 33.083C25.3034 33.5755 25.4004 34.0631 25.5888 34.5181C25.7773 34.9731 26.0535 35.3865 26.4017 35.7347L32.0001 41.333Z" fill="white"/>
</g>
<defs>
<clipPath id="clip0_7_123">
<rect x="12" y="13" width="40" height="40" rx="2" fill="white"/>
</clipPath>
</defs>
</svg>
