<svg width="274" height="85" viewBox="0 0 274 85" fill="none" xmlns="http://www.w3.org/2000/svg">
<g style="mix-blend-mode:luminosity">
<path d="M62.7025 33.7139V64.6214C62.8589 66.7783 62.1558 68.9095 60.7467 70.55C59.3375 72.1906 57.3366 73.2074 55.1805 73.3785H27.9263L10.8215 84.4022V73.3785H8.50312C6.34703 73.2074 4.34614 72.1906 2.93697 70.55C1.5278 68.9095 0.824742 66.7783 0.981159 64.6214V33.7139C0.824262 31.5516 1.52578 29.4146 2.93372 27.7658C4.34166 26.117 6.34263 25.0893 8.50312 24.9053H55.5927C57.6786 25.1883 59.5771 26.2584 60.8991 27.8963C62.2211 29.5341 62.8663 31.6156 62.7025 33.7139Z" fill="#FD6C5E"/>
<path d="M31.327 46.7468C34.2008 46.7468 36.5305 44.4175 36.5305 41.5441C36.5305 38.6707 34.2008 36.3413 31.327 36.3413C28.4531 36.3413 26.1234 38.6707 26.1234 41.5441C26.1234 44.4175 28.4531 46.7468 31.327 46.7468Z" fill="white"/>
<path d="M28.4414 48.498H34.8299C36.1963 48.498 37.5067 49.0408 38.4729 50.0068C39.4391 50.9729 39.9819 52.2831 39.9819 53.6493V60.758C39.9819 61.2635 39.7811 61.7483 39.4236 62.1057C39.0661 62.4632 38.5812 62.664 38.0757 62.664H24.938C24.4324 62.664 23.9476 62.4632 23.5901 62.1057C23.2326 61.7483 23.0317 61.2635 23.0317 60.758V53.9069C23.0317 52.5407 23.5745 51.2304 24.5407 50.2644C25.5069 49.2983 26.8174 48.7556 28.1838 48.7556L28.4414 48.498Z" fill="white"/>
<path d="M56.2694 15.8174L52.9074 2.37498C52.6485 1.33986 51.5994 0.710536 50.5643 0.969355C49.5292 1.22817 48.8999 2.27712 49.1588 3.31225L52.5208 16.7547C52.7797 17.7898 53.8287 18.4191 54.8639 18.1603C55.899 17.9015 56.5283 16.8525 56.2694 15.8174Z" fill="#FD6C5E"/>
<path d="M80.6694 18.7856L67.3442 22.5959C66.3184 22.8892 65.7247 23.9585 66.0181 24.9842C66.3115 26.0099 67.3809 26.6037 68.4066 26.3104L81.7319 22.5001C82.7576 22.2068 83.3513 21.1375 83.0579 20.1117C82.7645 19.086 81.6951 18.4922 80.6694 18.7856Z" fill="#FD6C5E"/>
<path d="M67.6846 5.81047L61.1305 16.2935C60.5649 17.1982 60.8398 18.3901 61.7446 18.9556C62.6494 19.5211 63.8414 19.2461 64.407 18.3414L70.9611 7.85835C71.5267 6.95364 71.2518 5.7618 70.347 5.19629C69.4422 4.63078 68.2502 4.90576 67.6846 5.81047Z" fill="#FD6C5E"/>
<path d="M93.0675 60.86C91.6755 60.86 90.4755 60.56 89.4675 59.96C88.4835 59.336 87.7155 58.46 87.1635 57.332C86.6355 56.18 86.3715 54.8 86.3715 53.192V41.456H91.4835V52.364C91.4835 53.228 91.6275 53.984 91.9155 54.632C92.2035 55.256 92.6115 55.736 93.1395 56.072C93.6675 56.408 94.3155 56.576 95.0835 56.576C95.6355 56.576 96.1515 56.492 96.6315 56.324C97.1115 56.132 97.5195 55.868 97.8555 55.532C98.1915 55.196 98.4555 54.8 98.6475 54.344C98.8395 53.888 98.9355 53.396 98.9355 52.868V41.456H104.048V60.5H99.1875L99.0075 56.576L99.9435 56.144C99.6555 57.032 99.1755 57.836 98.5035 58.556C97.8315 59.276 97.0275 59.84 96.0915 60.248C95.1555 60.656 94.1475 60.86 93.0675 60.86ZM110.667 60.5V40.124C110.667 38.948 110.931 37.88 111.459 36.92C111.987 35.96 112.707 35.204 113.619 34.652C114.555 34.1 115.647 33.824 116.895 33.824C117.735 33.824 118.527 33.968 119.271 34.256C120.015 34.52 120.651 34.892 121.179 35.372L119.667 39.116C119.355 38.924 119.031 38.768 118.695 38.648C118.383 38.504 118.095 38.432 117.831 38.432C117.375 38.432 116.991 38.516 116.679 38.684C116.391 38.828 116.175 39.056 116.031 39.368C115.887 39.656 115.815 40.028 115.815 40.484V60.5H113.259C112.707 60.5 112.215 60.5 111.783 60.5C111.351 60.5 110.979 60.5 110.667 60.5ZM107.823 46.244V41.924H119.919V46.244H107.823ZM131.657 60.86C129.593 60.86 127.793 60.44 126.257 59.6C124.721 58.76 123.521 57.608 122.657 56.144C121.793 54.68 121.361 53 121.361 51.104C121.361 49.64 121.601 48.296 122.081 47.072C122.561 45.848 123.233 44.792 124.097 43.904C124.961 42.992 125.981 42.296 127.157 41.816C128.357 41.312 129.653 41.06 131.045 41.06C132.341 41.06 133.541 41.3 134.645 41.78C135.749 42.236 136.697 42.896 137.489 43.76C138.305 44.6 138.929 45.596 139.361 46.748C139.793 47.9 139.985 49.16 139.937 50.528L139.901 52.112H124.601L123.773 48.98H135.689L135.113 49.628V48.836C135.065 48.188 134.849 47.6 134.465 47.072C134.105 46.544 133.637 46.136 133.061 45.848C132.485 45.56 131.837 45.416 131.117 45.416C130.061 45.416 129.161 45.62 128.417 46.028C127.697 46.436 127.145 47.036 126.761 47.828C126.377 48.62 126.185 49.58 126.185 50.708C126.185 51.86 126.425 52.856 126.905 53.696C127.409 54.536 128.105 55.196 128.993 55.676C129.905 56.132 130.973 56.36 132.197 56.36C133.037 56.36 133.805 56.228 134.501 55.964C135.197 55.7 135.941 55.244 136.733 54.596L139.181 58.016C138.485 58.64 137.717 59.168 136.877 59.6C136.037 60.008 135.173 60.32 134.285 60.536C133.397 60.752 132.521 60.86 131.657 60.86ZM152.751 60.86C150.687 60.86 148.887 60.44 147.351 59.6C145.815 58.76 144.615 57.608 143.751 56.144C142.887 54.68 142.455 53 142.455 51.104C142.455 49.64 142.695 48.296 143.175 47.072C143.655 45.848 144.327 44.792 145.191 43.904C146.055 42.992 147.075 42.296 148.251 41.816C149.451 41.312 150.747 41.06 152.139 41.06C153.435 41.06 154.635 41.3 155.739 41.78C156.843 42.236 157.791 42.896 158.583 43.76C159.399 44.6 160.023 45.596 160.455 46.748C160.887 47.9 161.079 49.16 161.031 50.528L160.995 52.112H145.695L144.867 48.98H156.783L156.207 49.628V48.836C156.159 48.188 155.943 47.6 155.559 47.072C155.199 46.544 154.731 46.136 154.155 45.848C153.579 45.56 152.931 45.416 152.211 45.416C151.155 45.416 150.255 45.62 149.511 46.028C148.791 46.436 148.239 47.036 147.855 47.828C147.471 48.62 147.279 49.58 147.279 50.708C147.279 51.86 147.519 52.856 147.999 53.696C148.503 54.536 149.199 55.196 150.087 55.676C150.999 56.132 152.067 56.36 153.291 56.36C154.131 56.36 154.899 56.228 155.595 55.964C156.291 55.7 157.035 55.244 157.827 54.596L160.275 58.016C159.579 58.64 158.811 59.168 157.971 59.6C157.131 60.008 156.267 60.32 155.379 60.536C154.491 60.752 153.615 60.86 152.751 60.86ZM172.261 60.86C170.605 60.86 169.117 60.44 167.797 59.6C166.477 58.736 165.433 57.572 164.665 56.108C163.921 54.62 163.549 52.904 163.549 50.96C163.549 49.064 163.921 47.372 164.665 45.884C165.433 44.396 166.465 43.22 167.761 42.356C169.081 41.492 170.581 41.06 172.261 41.06C173.149 41.06 174.001 41.204 174.817 41.492C175.657 41.756 176.401 42.128 177.049 42.608C177.721 43.088 178.261 43.628 178.669 44.228C179.077 44.804 179.305 45.416 179.353 46.064L178.057 46.28V33.86H183.169V60.5H178.345L178.129 56.108L179.137 56.216C179.089 56.816 178.873 57.392 178.489 57.944C178.105 58.496 177.589 59 176.941 59.456C176.317 59.888 175.597 60.236 174.781 60.5C173.989 60.74 173.149 60.86 172.261 60.86ZM173.413 56.612C174.373 56.612 175.213 56.372 175.933 55.892C176.653 55.412 177.217 54.752 177.625 53.912C178.033 53.072 178.237 52.088 178.237 50.96C178.237 49.856 178.033 48.884 177.625 48.044C177.217 47.18 176.653 46.52 175.933 46.064C175.213 45.584 174.373 45.344 173.413 45.344C172.453 45.344 171.613 45.584 170.893 46.064C170.197 46.52 169.645 47.18 169.237 48.044C168.853 48.884 168.661 49.856 168.661 50.96C168.661 52.088 168.853 53.072 169.237 53.912C169.645 54.752 170.197 55.412 170.893 55.892C171.613 56.372 172.453 56.612 173.413 56.612ZM199.132 60.86C198.292 60.86 197.476 60.74 196.684 60.5C195.892 60.26 195.172 59.936 194.524 59.528C193.876 59.096 193.336 58.616 192.904 58.088C192.472 57.536 192.196 56.972 192.076 56.396L193.228 55.964L192.976 60.428H188.152V33.86H193.264V45.92L192.292 45.524C192.436 44.948 192.712 44.396 193.12 43.868C193.528 43.316 194.044 42.836 194.668 42.428C195.292 41.996 195.976 41.66 196.72 41.42C197.464 41.18 198.232 41.06 199.024 41.06C200.68 41.06 202.156 41.492 203.452 42.356C204.748 43.196 205.768 44.36 206.512 45.848C207.28 47.336 207.664 49.04 207.664 50.96C207.664 52.88 207.292 54.584 206.548 56.072C205.804 57.56 204.784 58.736 203.488 59.6C202.216 60.44 200.764 60.86 199.132 60.86ZM197.908 56.504C198.868 56.504 199.696 56.276 200.392 55.82C201.112 55.34 201.676 54.692 202.084 53.876C202.492 53.036 202.696 52.064 202.696 50.96C202.696 49.88 202.492 48.92 202.084 48.08C201.7 47.24 201.148 46.592 200.428 46.136C199.708 45.68 198.868 45.452 197.908 45.452C196.948 45.452 196.108 45.68 195.388 46.136C194.668 46.592 194.104 47.24 193.696 48.08C193.288 48.92 193.084 49.88 193.084 50.96C193.084 52.064 193.288 53.036 193.696 53.876C194.104 54.692 194.668 55.34 195.388 55.82C196.108 56.276 196.948 56.504 197.908 56.504ZM218.659 60.86C217.075 60.86 215.647 60.428 214.375 59.564C213.103 58.7 212.095 57.524 211.351 56.036C210.607 54.548 210.235 52.844 210.235 50.924C210.235 49.004 210.607 47.312 211.351 45.848C212.119 44.36 213.151 43.196 214.447 42.356C215.743 41.492 217.219 41.06 218.875 41.06C219.811 41.06 220.663 41.204 221.431 41.492C222.223 41.756 222.907 42.128 223.483 42.608C224.083 43.088 224.587 43.64 224.995 44.264C225.403 44.888 225.691 45.56 225.859 46.28L224.779 46.1V41.456H229.855V60.5H224.707V55.928L225.859 55.82C225.667 56.492 225.355 57.128 224.923 57.728C224.491 58.328 223.951 58.868 223.303 59.348C222.679 59.804 221.971 60.176 221.179 60.464C220.387 60.728 219.547 60.86 218.659 60.86ZM220.063 56.432C221.023 56.432 221.863 56.204 222.583 55.748C223.303 55.292 223.855 54.656 224.239 53.84C224.647 53 224.851 52.028 224.851 50.924C224.851 49.844 224.647 48.896 224.239 48.08C223.855 47.264 223.303 46.628 222.583 46.172C221.863 45.692 221.023 45.452 220.063 45.452C219.127 45.452 218.299 45.692 217.579 46.172C216.883 46.628 216.331 47.264 215.923 48.08C215.515 48.896 215.311 49.844 215.311 50.924C215.311 52.028 215.515 53 215.923 53.84C216.331 54.656 216.883 55.292 217.579 55.748C218.299 56.204 219.127 56.432 220.063 56.432ZM243.26 60.86C241.436 60.86 239.804 60.428 238.364 59.564C236.924 58.7 235.784 57.524 234.944 56.036C234.128 54.548 233.72 52.856 233.72 50.96C233.72 49.088 234.128 47.408 234.944 45.92C235.784 44.408 236.924 43.22 238.364 42.356C239.804 41.492 241.436 41.06 243.26 41.06C244.964 41.06 246.524 41.372 247.94 41.996C249.356 42.62 250.46 43.484 251.252 44.588L248.444 47.972C248.108 47.516 247.688 47.108 247.184 46.748C246.68 46.364 246.128 46.064 245.528 45.848C244.952 45.632 244.352 45.524 243.728 45.524C242.744 45.524 241.868 45.764 241.1 46.244C240.356 46.7 239.768 47.336 239.336 48.152C238.904 48.968 238.688 49.904 238.688 50.96C238.688 51.992 238.904 52.916 239.336 53.732C239.792 54.524 240.404 55.172 241.172 55.676C241.94 56.156 242.804 56.396 243.764 56.396C244.388 56.396 244.976 56.312 245.528 56.144C246.08 55.952 246.596 55.676 247.076 55.316C247.58 54.956 248.036 54.524 248.444 54.02L251.216 57.404C250.4 58.436 249.272 59.276 247.832 59.924C246.392 60.548 244.868 60.86 243.26 60.86ZM259.352 54.776L257.84 50.564L266.84 41.456H273.572L259.352 54.776ZM254.492 60.5V33.86H259.604V60.5H254.492ZM267.38 60.5L260.54 51.896L264.14 49.016L273.536 60.5H267.38Z" fill="#FD6C5E"/>
</g>
</svg>
