<svg width="66" height="66" viewBox="0 0 66 66" fill="none" xmlns="http://www.w3.org/2000/svg">
<circle cx="33.1011" cy="33.0003" r="32.1135" fill="#815AF0"/>
<g clip-path="url(#clip0_7_23)">
<path d="M31.9999 16.3335C41.2033 16.3335 48.6666 22.9635 48.6666 31.1485C48.6653 33.6038 47.6892 35.9582 45.9528 37.6943C44.2165 39.4303 41.8619 40.4059 39.4066 40.4068H36.1299C34.5933 40.4068 33.3516 41.6485 33.3516 43.1852C33.3516 43.8885 33.6299 44.5368 34.0549 45.0185C34.4999 45.5185 34.7783 46.1668 34.7783 46.8885C34.7783 48.4268 33.4999 49.6668 31.9999 49.6668C22.7966 49.6668 15.3333 42.2035 15.3333 33.0002C15.3333 23.7968 22.7966 16.3335 31.9999 16.3335ZM24.4999 33.0002C25.163 33.0002 25.7988 32.7368 26.2677 32.2679C26.7365 31.7991 26.9999 31.1632 26.9999 30.5002C26.9999 29.8371 26.7365 29.2012 26.2677 28.7324C25.7988 28.2636 25.163 28.0002 24.4999 28.0002C23.8369 28.0002 23.201 28.2636 22.7322 28.7324C22.2633 29.2012 21.9999 29.8371 21.9999 30.5002C21.9999 31.1632 22.2633 31.7991 22.7322 32.2679C23.201 32.7368 23.8369 33.0002 24.4999 33.0002ZM39.4999 33.0002C40.163 33.0002 40.7988 32.7368 41.2677 32.2679C41.7365 31.7991 41.9999 31.1632 41.9999 30.5002C41.9999 29.8371 41.7365 29.2012 41.2677 28.7324C40.7988 28.2636 40.163 28.0002 39.4999 28.0002C38.8369 28.0002 38.201 28.2636 37.7322 28.7324C37.2633 29.2012 36.9999 29.8371 36.9999 30.5002C36.9999 31.1632 37.2633 31.7991 37.7322 32.2679C38.201 32.7368 38.8369 33.0002 39.4999 33.0002ZM31.9999 28.0002C32.663 28.0002 33.2988 27.7368 33.7677 27.2679C34.2365 26.7991 34.4999 26.1632 34.4999 25.5002C34.4999 24.8371 34.2365 24.2012 33.7677 23.7324C33.2988 23.2636 32.663 23.0002 31.9999 23.0002C31.3369 23.0002 30.701 23.2636 30.2322 23.7324C29.7633 24.2012 29.4999 24.8371 29.4999 25.5002C29.4999 26.1632 29.7633 26.7991 30.2322 27.2679C30.701 27.7368 31.3369 28.0002 31.9999 28.0002Z" fill="white"/>
</g>
<defs>
<clipPath id="clip0_7_23">
<rect width="40" height="40" fill="white" transform="translate(12 13)"/>
</clipPath>
</defs>
</svg>
