<svg width="277" height="75" viewBox="0 0 277 75" fill="none" xmlns="http://www.w3.org/2000/svg">
<g style="mix-blend-mode:luminosity">
<path d="M52.7781 42.3556C50.51 42.3556 48.5157 41.8994 46.7951 40.987C45.0745 40.0615 43.732 38.7645 42.7674 37.0961C41.8028 35.4276 41.3205 33.4659 41.3205 31.2109V13.6531L46.7169 13.614V31.1718C46.7169 32.0973 46.8733 32.938 47.1862 33.694C47.499 34.45 47.9291 35.1018 48.4766 35.6492C49.0371 36.1967 49.6823 36.6203 50.4123 36.9201C51.1552 37.2069 51.9438 37.3503 52.7781 37.3503C53.6384 37.3503 54.4335 37.2004 55.1634 36.9006C55.9064 36.6008 56.5516 36.1771 57.0991 35.6297C57.6465 35.0822 58.0702 34.4305 58.37 33.6745C58.6828 32.9185 58.8392 32.0842 58.8392 31.1718V13.614H64.2356V31.2109C64.2356 33.4659 63.7533 35.4276 62.7887 37.0961C61.8242 38.7645 60.4816 40.0615 58.761 40.987C57.0404 41.8994 55.0461 42.3556 52.7781 42.3556ZM67.3477 41.769L76.8109 27.5351L67.6215 13.614H74.1519L80.1348 22.999L86.0395 13.614H92.609L83.4195 27.5351L92.8437 41.769H86.3133L80.1348 32.0712L73.9172 41.769H67.3477ZM95.9671 41.769V13.614H105.078C105.3 13.614 105.756 13.6206 106.447 13.6336C107.138 13.6466 107.803 13.6922 108.441 13.7705C110.709 14.0442 112.632 14.8328 114.209 16.1363C115.786 17.4397 116.986 19.0951 117.807 21.1025C118.628 23.1098 119.039 25.3062 119.039 27.6915C119.039 30.0769 118.628 32.2732 117.807 34.2806C116.986 36.2879 115.786 37.9434 114.209 39.2468C112.632 40.5503 110.709 41.3389 108.441 41.6126C107.803 41.6908 107.138 41.7365 106.447 41.7495C105.756 41.7625 105.3 41.769 105.078 41.769H95.9671ZM101.363 36.7637H105.078C105.43 36.7637 105.906 36.7572 106.506 36.7442C107.105 36.7181 107.646 36.6594 108.128 36.5682C109.354 36.3205 110.351 35.747 111.12 34.8476C111.902 33.9482 112.476 32.8663 112.841 31.602C113.219 30.3376 113.408 29.0341 113.408 27.6915C113.408 26.2838 113.212 24.9477 112.821 23.6834C112.443 22.419 111.863 21.3501 111.081 20.4768C110.299 19.6035 109.315 19.0495 108.128 18.8149C107.646 18.7106 107.105 18.652 106.506 18.6389C105.906 18.6259 105.43 18.6194 105.078 18.6194H101.363V36.7637ZM123.73 41.769V13.614H142.108V18.5803H129.048V24.6023H139.762V29.5685H129.048V36.8028H142.108V41.769H123.73ZM157.431 42.3556C155.346 42.3556 153.462 41.9906 151.781 41.2607C150.112 40.5177 148.737 39.4619 147.655 38.0933C146.586 36.7116 145.909 35.0692 145.622 33.1661L151.175 32.3449C151.566 33.9612 152.374 35.2061 153.599 36.0794C154.824 36.9527 156.219 37.3894 157.783 37.3894C158.656 37.3894 159.504 37.2525 160.325 36.9788C161.146 36.7051 161.817 36.301 162.339 35.7666C162.873 35.2321 163.14 34.5739 163.14 33.7918C163.14 33.505 163.095 33.2313 163.004 32.9706C162.925 32.6969 162.788 32.4427 162.593 32.2081C162.397 31.9734 162.117 31.7519 161.752 31.5433C161.4 31.3347 160.951 31.1457 160.403 30.9763L153.091 28.8256C152.543 28.6691 151.904 28.4476 151.175 28.1608C150.458 27.874 149.76 27.4634 149.082 26.929C148.405 26.3946 147.838 25.6907 147.381 24.8174C146.938 23.931 146.717 22.8166 146.717 21.474C146.717 19.5839 147.192 18.0133 148.144 16.7619C149.096 15.5106 150.366 14.5786 151.957 13.966C153.547 13.3533 155.307 13.0535 157.236 13.0666C159.178 13.0926 160.911 13.425 162.437 14.0637C163.962 14.7024 165.239 15.6344 166.269 16.8597C167.299 18.0719 168.041 19.5579 168.498 21.3176L162.749 22.2952C162.541 21.3827 162.156 20.6137 161.596 19.988C161.035 19.3624 160.364 18.8866 159.582 18.5607C158.813 18.2348 158.005 18.0589 157.157 18.0328C156.323 18.0067 155.535 18.1241 154.792 18.3847C154.062 18.6324 153.462 18.9974 152.993 19.4797C152.537 19.9619 152.309 20.5355 152.309 21.2002C152.309 21.8129 152.498 22.3147 152.876 22.7058C153.254 23.0838 153.729 23.3901 154.303 23.6247C154.876 23.8593 155.463 24.0549 156.063 24.2113L160.951 25.5408C161.681 25.7363 162.489 25.997 163.375 26.3229C164.261 26.6357 165.109 27.0789 165.917 27.6524C166.738 28.2129 167.409 28.9559 167.931 29.8814C168.465 30.8068 168.732 31.98 168.732 33.4007C168.732 34.9128 168.413 36.2358 167.774 37.3698C167.149 38.4908 166.301 39.4228 165.232 40.1658C164.164 40.8957 162.951 41.4432 161.596 41.8081C160.253 42.1731 158.865 42.3556 157.431 42.3556ZM173.421 41.769V13.614H178.739V41.769H173.421ZM196.332 42.3556C194.559 42.3556 192.871 42.0428 191.268 41.4171C189.665 40.7784 188.244 39.8399 187.006 38.6016C185.78 37.3633 184.809 35.8317 184.092 34.0069C183.388 32.182 183.037 30.0769 183.037 27.6915C183.037 24.5762 183.63 21.9302 184.816 19.7534C186.015 17.5636 187.618 15.8951 189.626 14.7481C191.646 13.601 193.881 13.0275 196.332 13.0275C199.956 13.0275 202.804 13.8682 204.876 15.5497C206.949 17.2312 208.337 19.61 209.041 22.6862L203.605 23.4683C203.097 21.8259 202.263 20.5159 201.103 19.5383C199.956 18.5477 198.483 18.0458 196.684 18.0328C194.898 18.0067 193.412 18.3913 192.226 19.1864C191.04 19.9815 190.147 21.109 189.547 22.5689C188.961 24.0288 188.668 25.7363 188.668 27.6915C188.668 29.6467 188.961 31.3413 189.547 32.7751C190.147 34.2089 191.04 35.3234 192.226 36.1185C193.412 36.9136 194.898 37.3242 196.684 37.3503C197.896 37.3763 198.991 37.1678 199.969 36.7246C200.959 36.2814 201.793 35.5841 202.471 34.6325C203.149 33.681 203.631 32.4622 203.918 30.9763H199.46V26.8704H209.588C209.614 27.0398 209.634 27.3396 209.647 27.7697C209.66 28.1999 209.666 28.4476 209.666 28.5127C209.666 31.2109 209.119 33.6028 208.024 35.6883C206.929 37.7739 205.385 39.4098 203.39 40.5959C201.396 41.769 199.043 42.3556 196.332 42.3556ZM213.585 41.769V13.614H218.981L231.221 32.384V13.614H236.617V41.769H231.221L218.981 22.999V41.769H213.585Z" fill="#969696"/>
<path d="M43.7038 67.1328V50.7091H46.4867L51.9157 61.6126L57.3446 50.7091H60.1275V67.1328H57.2306V57.3242L52.4631 67.1328H51.3682L46.6008 57.3242V67.1328H43.7038ZM82.8323 67.1328L87.8506 50.7091H92.4812L97.4996 67.1328H94.3061L89.8352 52.648H90.4283L86.0258 67.1328H82.8323ZM85.8433 63.7112V60.8142H94.5114V63.7112H85.8433ZM125.947 67.475C124.73 67.475 123.631 67.2621 122.65 66.8363C121.677 66.4029 120.875 65.787 120.244 64.9886C119.62 64.1826 119.225 63.2246 119.058 62.1144L122.297 61.6354C122.525 62.5783 122.996 63.3044 123.711 63.8138C124.426 64.3233 125.239 64.578 126.152 64.578C126.661 64.578 127.156 64.4982 127.635 64.3385C128.114 64.1788 128.505 63.9431 128.809 63.6314C129.121 63.3196 129.277 62.9356 129.277 62.4794C129.277 62.3121 129.25 62.1525 129.197 62.0004C129.151 61.8407 129.072 61.6924 128.958 61.5556C128.844 61.4187 128.68 61.2895 128.467 61.1678C128.262 61.0461 128 60.9359 127.68 60.837L123.415 59.5824C123.095 59.4912 122.723 59.3619 122.297 59.1947C121.879 59.0274 121.472 58.7879 121.076 58.4761C120.681 58.1644 120.35 57.7538 120.084 57.2443C119.826 56.7273 119.696 56.0772 119.696 55.294C119.696 54.1915 119.974 53.2753 120.529 52.5453C121.084 51.8154 121.825 51.2717 122.753 50.9144C123.681 50.557 124.707 50.3821 125.833 50.3897C126.965 50.4049 127.977 50.5988 128.866 50.9714C129.756 51.344 130.501 51.8876 131.102 52.6024C131.702 53.3095 132.136 54.1763 132.402 55.2028L129.049 55.7731C128.927 55.2408 128.703 54.7922 128.376 54.4272C128.049 54.0622 127.657 53.7847 127.201 53.5946C126.753 53.4045 126.281 53.3019 125.787 53.2867C125.3 53.2715 124.84 53.3399 124.407 53.492C123.981 53.6364 123.631 53.8493 123.358 54.1307C123.091 54.412 122.958 54.7466 122.958 55.1343C122.958 55.4917 123.069 55.7845 123.289 56.0126C123.51 56.2331 123.787 56.4118 124.122 56.5486C124.456 56.6855 124.798 56.7995 125.148 56.8908L128 57.6663C128.425 57.7804 128.897 57.9325 129.414 58.1226C129.931 58.305 130.425 58.5636 130.897 58.8981C131.376 59.2251 131.767 59.6585 132.071 60.1983C132.383 60.7382 132.539 61.4225 132.539 62.2513C132.539 63.1333 132.353 63.9051 131.98 64.5666C131.615 65.2205 131.121 65.7642 130.497 66.1976C129.874 66.6234 129.167 66.9427 128.376 67.1556C127.593 67.3685 126.783 67.475 125.947 67.475ZM159.499 67.1328V53.606H154.321V50.7091H167.779V53.606H162.601V67.1328H159.499ZM190.256 67.1328V50.7091H200.977V53.606H193.358V57.1189H199.608V60.0159H193.358V64.2358H200.977V67.1328H190.256ZM224.354 67.1328V50.7091H231.289C231.449 50.7091 231.661 50.7167 231.928 50.7319C232.201 50.7395 232.445 50.7623 232.657 50.8003C233.638 50.9524 234.441 51.2755 235.064 51.7698C235.695 52.264 236.159 52.8875 236.455 53.6402C236.752 54.3854 236.9 55.218 236.9 56.138C236.9 57.5143 236.558 58.6928 235.874 59.6737C235.189 60.647 234.117 61.2476 232.657 61.4757L231.289 61.567H227.457V67.1328H224.354ZM233.616 67.1328L230.376 60.4493L233.57 59.8334L237.128 67.1328H233.616ZM227.457 58.67H231.152C231.312 58.67 231.487 58.6624 231.677 58.6472C231.867 58.632 232.042 58.6016 232.201 58.556C232.619 58.4419 232.943 58.2518 233.171 57.9857C233.399 57.712 233.555 57.4116 233.638 57.0847C233.73 56.7501 233.775 56.4346 233.775 56.138C233.775 55.8415 233.73 55.5297 233.638 55.2028C233.555 54.8682 233.399 54.5679 233.171 54.3018C232.943 54.028 232.619 53.8341 232.201 53.7201C232.042 53.6745 231.867 53.644 231.677 53.6288C231.487 53.6136 231.312 53.606 231.152 53.606H227.457V58.67Z" fill="#969696"/>
</g>
</svg>
