<svg width="66" height="65" viewBox="0 0 66 65" fill="none" xmlns="http://www.w3.org/2000/svg">
<circle cx="32.9845" cy="32.8699" r="32.1135" fill="#815AF0"/>
<g clip-path="url(#clip0_41_217)">
<path d="M28.3613 32.004H32.1189C34.1856 32.004 36.1676 32.825 37.6289 34.2863C39.0902 35.7477 39.9112 37.7297 39.9112 39.7963H27.7882L27.7899 41.5279H41.6428V39.7963C41.6374 37.9538 41.105 36.1513 40.1086 34.6015H45.106C46.7429 34.601 48.3463 35.0645 49.7304 35.9383C51.1145 36.8121 52.2225 38.0604 52.926 39.5383C48.8307 44.9426 42.2004 48.4544 34.7164 48.4544C29.9354 48.4544 25.8851 47.4327 22.5951 45.6405V29.5296C24.7018 29.8313 26.6912 30.685 28.3613 32.004ZM20.8635 44.9911C20.8635 45.4504 20.681 45.8908 20.3563 46.2156C20.0315 46.5403 19.5911 46.7227 19.1318 46.7227H15.6686C15.2094 46.7227 14.7689 46.5403 14.4442 46.2156C14.1194 45.8908 13.937 45.4504 13.937 44.9911V29.4066C13.937 28.9474 14.1194 28.5069 14.4442 28.1822C14.7689 27.8574 15.2094 27.675 15.6686 27.675H19.1318C19.5911 27.675 20.0315 27.8574 20.3563 28.1822C20.681 28.5069 20.8635 28.9474 20.8635 29.4066V44.9911ZM43.3744 20.7485C44.7522 20.7485 46.0735 21.2959 47.0477 22.2701C48.022 23.2443 48.5693 24.5656 48.5693 25.9434C48.5693 27.3211 48.022 28.6425 47.0477 29.6167C46.0735 30.5909 44.7522 31.1382 43.3744 31.1382C41.9967 31.1382 40.6753 30.5909 39.7011 29.6167C38.7269 28.6425 38.1796 27.3211 38.1796 25.9434C38.1796 24.5656 38.7269 23.2443 39.7011 22.2701C40.6753 21.2959 41.9967 20.7485 43.3744 20.7485ZM31.2531 15.5537C32.6309 15.5537 33.9522 16.101 34.9264 17.0752C35.9007 18.0495 36.448 19.3708 36.448 20.7485C36.448 22.1263 35.9007 23.4476 34.9264 24.4219C33.9522 25.3961 32.6309 25.9434 31.2531 25.9434C29.8754 25.9434 28.5541 25.3961 27.5798 24.4219C26.6056 23.4476 26.0583 22.1263 26.0583 20.7485C26.0583 19.3708 26.6056 18.0495 27.5798 17.0752C28.5541 16.101 29.8754 15.5537 31.2531 15.5537Z" fill="#FFFEFE"/>
</g>
<defs>
<clipPath id="clip0_41_217">
<rect width="41.5587" height="41.5587" fill="white" transform="translate(12.2051 12.0903)"/>
</clipPath>
</defs>
</svg>
