<?xml version="1.0" standalone="no"?>
<!DOCTYPE svg PUBLIC "-//W3C//DTD SVG 20010904//EN"
 "http://www.w3.org/TR/2001/REC-SVG-20010904/DTD/svg10.dtd">
<svg version="1.0" xmlns="http://www.w3.org/2000/svg"
 width="276.000000pt" height="276.000000pt" viewBox="0 0 276.000000 276.000000"
 preserveAspectRatio="xMidYMid meet">
<metadata>
Created by potrace 1.14, written by Peter Selinger 2001-2017
</metadata>
<g transform="translate(0.000000,276.000000) scale(0.100000,-0.100000)"
fill="#000000" stroke="none">
<path d="M694 1933 c-85 -17 -90 -156 -7 -184 89 -29 167 53 126 134 -13 25
-68 59 -90 56 -4 -1 -18 -4 -29 -6z"/>
<path d="M2623 1929 c-64 -19 -89 -106 -43 -154 49 -53 148 -36 169 28 27 80
-43 149 -126 126z"/>
<path d="M2030 1872 c-14 -1 -40 -5 -57 -8 l-33 -5 0 -398 0 -398 74 -1 c71
-1 74 0 81 25 l6 26 24 -23 c32 -30 89 -48 142 -43 135 11 213 135 207 328 -4
133 -56 234 -137 264 -65 25 -157 8 -204 -38 l-23 -22 0 151 0 150 -27 -2
c-16 -2 -39 -4 -53 -6z m218 -358 c33 -23 43 -49 49 -123 7 -91 -11 -175 -44
-201 -37 -29 -88 -26 -118 6 -24 26 -25 33 -25 149 0 118 1 123 26 148 22 23
40 30 79 36 6 0 21 -6 33 -15z"/>
<path d="M245 1631 c-22 -10 -46 -25 -54 -34 -16 -20 -31 -13 -31 14 0 10 -6
19 -12 20 -57 4 -122 3 -130 -2 -7 -5 -11 -133 -10 -395 0 -214 1 -394 1 -401
1 -7 13 -10 33 -7 81 11 94 12 115 13 21 1 22 5 21 94 0 50 0 109 1 129 l1 37
36 -24 c20 -14 44 -25 53 -26 9 0 25 -2 36 -4 38 -8 119 23 152 57 60 64 85
141 85 262 -1 136 -42 229 -118 266 -51 25 -126 26 -179 1z m73 -117 c32 -22
43 -57 47 -143 4 -87 -16 -164 -48 -186 -32 -22 -81 -19 -113 8 -26 23 -26 25
-27 144 0 103 3 124 19 146 32 44 85 57 122 31z"/>
<path d="M1181 1633 c-19 -9 -43 -32 -53 -50 -11 -18 -24 -33 -29 -33 -8 0
-14 47 -10 73 0 4 -5 7 -11 8 -18 1 -99 2 -126 0 l-22 -1 0 -283 1 -283 84 -2
c73 -1 85 2 85 16 1 9 2 80 4 157 3 154 15 201 61 231 14 9 43 17 65 18 21 1
41 3 43 6 5 5 18 89 21 130 1 22 -3 25 -39 28 -23 1 -55 -5 -74 -15z"/>
<path d="M1468 1636 c-55 -20 -85 -42 -118 -88 -80 -110 -80 -296 -1 -405 73
-101 257 -130 371 -58 86 55 124 132 124 255 1 106 -16 167 -62 221 -51 60
-120 89 -207 88 -38 0 -87 -6 -107 -13z m142 -121 c48 -25 61 -63 61 -177 -1
-113 -36 -168 -109 -168 -62 1 -93 59 -94 177 0 142 59 211 142 168z"/>
<path d="M644 1631 c-2 -2 -4 -131 -4 -286 l0 -282 85 0 85 0 -2 286 -3 285
-78 0 c-43 1 -80 -1 -83 -3z"/>
<path d="M2574 1631 c-2 -2 -4 -131 -4 -286 l0 -282 85 -1 c80 0 85 1 86 22 0
11 1 139 2 284 2 256 2 262 -18 263 -76 4 -147 4 -151 0z"/>
</g>
</svg>
