<svg width="66" height="65" viewBox="0 0 66 65" fill="none" xmlns="http://www.w3.org/2000/svg">
<circle cx="32.9651" cy="32.6956" r="32.1135" fill="#815AF0"/>
<g clip-path="url(#clip0_7_27)">
<path d="M41.7975 41.6654L48.4004 48.2668L46.219 50.4483L39.6175 43.8453C37.1613 45.8144 34.1061 46.8853 30.958 46.8809C23.299 46.8809 17.083 40.6649 17.083 33.0059C17.083 25.3469 23.299 19.1309 30.958 19.1309C38.617 19.1309 44.833 25.3469 44.833 33.0059C44.8375 36.1539 43.7665 39.2091 41.7975 41.6654ZM32.7741 27.1121C31.4581 26.7069 30.0443 26.7539 28.7581 27.2455C27.4719 27.737 26.3872 28.645 25.6769 29.8245C24.9665 31.0041 24.6714 32.3875 24.8386 33.7543C25.0057 35.1211 25.6255 36.3926 26.5992 37.3662C27.5728 38.3399 28.8443 38.9597 30.2111 39.1268C31.5779 39.294 32.9613 38.9989 34.1409 38.2885C35.3205 37.5782 36.2284 36.4935 36.7199 35.2073C37.2115 33.9211 37.2585 32.5073 36.8533 31.1913C36.6477 31.6456 36.335 32.0433 35.9419 32.3503C35.5489 32.6572 35.0873 32.8642 34.5966 32.9535C34.106 33.0429 33.601 33.0119 33.125 32.8632C32.649 32.7145 32.2162 32.4526 31.8636 32.0999C31.511 31.7472 31.2493 31.3143 31.1008 30.8382C30.9523 30.3621 30.9215 29.8572 31.011 29.3666C31.1005 28.876 31.3077 28.4144 31.6148 28.0215C31.9219 27.6285 32.3197 27.316 32.7741 27.1105V27.1121Z" fill="white"/>
</g>
<defs>
<clipPath id="clip0_7_27">
<rect width="37" height="37" fill="white" transform="translate(14 16.0479)"/>
</clipPath>
</defs>
</svg>
