<svg width="65" height="65" viewBox="0 0 65 65" fill="none" xmlns="http://www.w3.org/2000/svg">
<circle cx="32.307" cy="32.6477" r="32.1135" fill="#815AF0"/>
<g clip-path="url(#clip0_41_250)">
<path d="M20.757 17.5321C21.8376 17.1465 23.0055 17.0757 24.1247 17.3277C25.244 17.5798 26.2688 18.1443 27.0799 18.9558C27.891 19.7672 28.4551 20.7922 28.7066 21.9116C28.9581 23.031 28.8868 24.1989 28.5008 25.2793L47.2801 44.0586L43.6056 47.7314L24.8263 28.9538C23.7457 29.3393 22.5778 29.4101 21.4586 29.1581C20.3393 28.9061 19.3145 28.3415 18.5034 27.5301C17.6923 26.7186 17.1282 25.6936 16.8767 24.5742C16.6252 23.4548 16.6965 22.287 17.0825 21.2065L20.9544 25.0802C21.194 25.3282 21.4806 25.5261 21.7975 25.6622C22.1144 25.7984 22.4552 25.87 22.8001 25.873C23.145 25.876 23.487 25.8103 23.8063 25.6797C24.1255 25.5491 24.4155 25.3562 24.6594 25.1123C24.9032 24.8685 25.0961 24.5785 25.2267 24.2592C25.3573 23.94 25.423 23.598 25.42 23.2531C25.417 22.9082 25.3454 22.5674 25.2092 22.2505C25.0731 21.9336 24.8752 21.647 24.6272 21.4074L20.7553 17.5303L20.757 17.5321ZM38.7086 20.7944L44.2186 17.7329L46.6671 20.1814L43.6056 25.6914L40.5441 26.3044L36.8731 29.9772L34.4229 27.5287L38.0956 23.8559L38.7086 20.7944ZM26.4644 34.2629L30.1372 37.9374L21.5657 46.5089C21.093 46.9771 20.4587 47.2461 19.7935 47.2604C19.1283 47.2747 18.483 47.0332 17.9907 46.5857C17.4983 46.1382 17.1965 45.5189 17.1473 44.8554C17.0982 44.1918 17.3056 43.5348 17.7267 43.0197L17.8946 42.8344L26.4661 34.2629H26.4644Z" fill="white"/>
</g>
<defs>
<clipPath id="clip0_41_250">
<rect width="41.5587" height="41.5587" fill="white" transform="translate(11.5277 11.8682)"/>
</clipPath>
</defs>
</svg>
