<svg width="277" height="74" viewBox="0 0 277 74" fill="none" xmlns="http://www.w3.org/2000/svg">
<path d="M52.7781 41.8558C50.51 41.8558 48.5157 41.3996 46.7951 40.4872C45.0745 39.5617 43.732 38.2648 42.7674 36.5963C41.8028 34.9279 41.3205 32.9662 41.3205 30.7112V13.1534L46.7169 13.1143V30.6721C46.7169 31.5975 46.8733 32.4383 47.1862 33.1943C47.499 33.9503 47.9291 34.602 48.4766 35.1495C49.0371 35.6969 49.6823 36.1206 50.4123 36.4204C51.1552 36.7071 51.9438 36.8505 52.7781 36.8505C53.6384 36.8505 54.4335 36.7006 55.1634 36.4008C55.9064 36.101 56.5516 35.6774 57.0991 35.1299C57.6465 34.5825 58.0702 33.9307 58.37 33.1747C58.6828 32.4187 58.8392 31.5845 58.8392 30.6721V13.1143H64.2356V30.7112C64.2356 32.9662 63.7533 34.9279 62.7887 36.5963C61.8242 38.2648 60.4816 39.5617 58.761 40.4872C57.0404 41.3996 55.0461 41.8558 52.7781 41.8558ZM67.3477 41.2693L76.8109 27.0354L67.6215 13.1143H74.1519L80.1348 22.4993L86.0395 13.1143H92.609L83.4195 27.0354L92.8437 41.2693H86.3133L80.1348 31.5715L73.9172 41.2693H67.3477ZM95.9671 41.2693V13.1143H105.078C105.3 13.1143 105.756 13.1208 106.447 13.1338C107.138 13.1469 107.803 13.1925 108.441 13.2707C110.709 13.5444 112.632 14.333 114.209 15.6365C115.786 16.94 116.986 18.5954 117.807 20.6027C118.628 22.6101 119.039 24.8064 119.039 27.1918C119.039 29.5771 118.628 31.7735 117.807 33.7808C116.986 35.7882 115.786 37.4436 114.209 38.7471C112.632 40.0505 110.709 40.8391 108.441 41.1129C107.803 41.1911 107.138 41.2367 106.447 41.2497C105.756 41.2628 105.3 41.2693 105.078 41.2693H95.9671ZM101.363 36.264H105.078C105.43 36.264 105.906 36.2574 106.506 36.2444C107.105 36.2183 107.646 36.1597 108.128 36.0684C109.354 35.8208 110.351 35.2472 111.12 34.3478C111.902 33.4485 112.476 32.3666 112.841 31.1022C113.219 29.8378 113.408 28.5344 113.408 27.1918C113.408 25.784 113.212 24.448 112.821 23.1836C112.443 21.9192 111.863 20.8504 111.081 19.9771C110.299 19.1037 109.315 18.5498 108.128 18.3151C107.646 18.2109 107.105 18.1522 106.506 18.1392C105.906 18.1261 105.43 18.1196 105.078 18.1196H101.363V36.264ZM123.73 41.2693V13.1143H142.108V18.0805H129.048V24.1026H139.762V29.0688H129.048V36.3031H142.108V41.2693H123.73ZM157.431 41.8558C155.346 41.8558 153.462 41.4909 151.781 40.7609C150.112 40.018 148.737 38.9621 147.655 37.5935C146.586 36.2118 145.909 34.5694 145.622 32.6664L151.175 31.8452C151.566 33.4615 152.374 34.7063 153.599 35.5796C154.824 36.453 156.219 36.8896 157.783 36.8896C158.656 36.8896 159.504 36.7528 160.325 36.479C161.146 36.2053 161.817 35.8012 162.339 35.2668C162.873 34.7324 163.14 34.0741 163.14 33.292C163.14 33.0053 163.095 32.7315 163.004 32.4708C162.925 32.1971 162.788 31.9429 162.593 31.7083C162.397 31.4737 162.117 31.2521 161.752 31.0435C161.4 30.835 160.951 30.646 160.403 30.4765L153.091 28.3258C152.543 28.1694 151.904 27.9478 151.175 27.661C150.458 27.3743 149.76 26.9637 149.082 26.4293C148.405 25.8948 147.838 25.191 147.381 24.3176C146.938 23.4313 146.717 22.3168 146.717 20.9742C146.717 19.0842 147.192 17.5135 148.144 16.2622C149.096 15.0108 150.366 14.0789 151.957 13.4662C153.547 12.8536 155.307 12.5538 157.236 12.5668C159.178 12.5929 160.911 12.9253 162.437 13.564C163.962 14.2027 165.239 15.1347 166.269 16.3599C167.299 17.5722 168.041 19.0581 168.498 20.8178L162.749 21.7954C162.541 20.883 162.156 20.1139 161.596 19.4883C161.035 18.8626 160.364 18.3868 159.582 18.061C158.813 17.7351 158.005 17.5591 157.157 17.5331C156.323 17.507 155.535 17.6243 154.792 17.885C154.062 18.1327 153.462 18.4976 152.993 18.9799C152.537 19.4622 152.309 20.0357 152.309 20.7005C152.309 21.3131 152.498 21.815 152.876 22.206C153.254 22.584 153.729 22.8903 154.303 23.125C154.876 23.3596 155.463 23.5551 156.063 23.7115L160.951 25.0411C161.681 25.2366 162.489 25.4973 163.375 25.8231C164.261 26.136 165.109 26.5792 165.917 27.1527C166.738 27.7132 167.409 28.4562 167.931 29.3816C168.465 30.3071 168.732 31.4802 168.732 32.901C168.732 34.413 168.413 35.736 167.774 36.8701C167.149 37.9911 166.301 38.923 165.232 39.666C164.164 40.396 162.951 40.9434 161.596 41.3084C160.253 41.6734 158.865 41.8558 157.431 41.8558ZM173.421 41.2693V13.1143H178.739V41.2693H173.421ZM196.332 41.8558C194.559 41.8558 192.871 41.543 191.268 40.9173C189.665 40.2786 188.244 39.3401 187.006 38.1018C185.78 36.8636 184.809 35.332 184.092 33.5071C183.388 31.6822 183.037 29.5771 183.037 27.1918C183.037 24.0765 183.63 21.4304 184.816 19.2536C186.015 17.0638 187.618 15.3954 189.626 14.2483C191.646 13.1012 193.881 12.5277 196.332 12.5277C199.956 12.5277 202.804 13.3685 204.876 15.0499C206.949 16.7314 208.337 19.1103 209.041 22.1864L203.605 22.9685C203.097 21.3262 202.263 20.0162 201.103 19.0386C199.956 18.0479 198.483 17.5461 196.684 17.5331C194.898 17.507 193.412 17.8915 192.226 18.6866C191.04 19.4817 190.147 20.6092 189.547 22.0691C188.961 23.529 188.668 25.2366 188.668 27.1918C188.668 29.147 188.961 30.8415 189.547 32.2753C190.147 33.7091 191.04 34.8236 192.226 35.6187C193.412 36.4139 194.898 36.8244 196.684 36.8505C197.896 36.8766 198.991 36.668 199.969 36.2248C200.959 35.7817 201.793 35.0843 202.471 34.1328C203.149 33.1812 203.631 31.9625 203.918 30.4765H199.46V26.3706H209.588C209.614 26.54 209.634 26.8398 209.647 27.27C209.66 27.7001 209.666 27.9478 209.666 28.013C209.666 30.7112 209.119 33.103 208.024 35.1886C206.929 37.2741 205.385 38.91 203.39 40.0962C201.396 41.2693 199.043 41.8558 196.332 41.8558ZM213.585 41.2693V13.1143H218.981L231.221 31.8843V13.1143H236.617V41.2693H231.221L218.981 22.4993V41.2693H213.585Z" fill="#969698"/>
<path d="M43.7038 66.6333V50.2095H46.4867L51.9157 61.1131L57.3446 50.2095H60.1275V66.6333H57.2306V56.8247L52.4631 66.6333H51.3682L46.6008 56.8247V66.6333H43.7038ZM82.8323 66.6333L87.8506 50.2095H92.4812L97.4996 66.6333H94.3061L89.8352 52.1485H90.4283L86.0258 66.6333H82.8323ZM85.8433 63.2117V60.3147H94.5114V63.2117H85.8433ZM125.947 66.9755C124.73 66.9755 123.631 66.7626 122.65 66.3368C121.677 65.9034 120.875 65.2875 120.244 64.4891C119.62 63.6831 119.225 62.7251 119.058 61.6149L122.297 61.1359C122.525 62.0788 122.996 62.8049 123.711 63.3143C124.426 63.8238 125.239 64.0785 126.152 64.0785C126.661 64.0785 127.156 63.9987 127.635 63.839C128.114 63.6793 128.505 63.4436 128.809 63.1318C129.121 62.8201 129.277 62.4361 129.277 61.9799C129.277 61.8126 129.25 61.653 129.197 61.5009C129.151 61.3412 129.072 61.1929 128.958 61.0561C128.844 60.9192 128.68 60.7899 128.467 60.6683C128.262 60.5466 128 60.4364 127.68 60.3375L123.415 59.0829C123.095 58.9917 122.723 58.8624 122.297 58.6952C121.879 58.5279 121.472 58.2884 121.076 57.9766C120.681 57.6649 120.35 57.2543 120.084 56.7448C119.826 56.2278 119.696 55.5777 119.696 54.7945C119.696 53.692 119.974 52.7758 120.529 52.0458C121.084 51.3159 121.825 50.7722 122.753 50.4148C123.681 50.0575 124.707 49.8826 125.833 49.8902C126.965 49.9054 127.977 50.0993 128.866 50.4719C129.756 50.8444 130.501 51.3881 131.102 52.1028C131.702 52.81 132.136 53.6768 132.402 54.7033L129.049 55.2735C128.927 54.7413 128.703 54.2927 128.376 53.9277C128.049 53.5627 127.657 53.2852 127.201 53.0951C126.753 52.905 126.281 52.8024 125.787 52.7872C125.3 52.772 124.84 52.8404 124.407 52.9925C123.981 53.1369 123.631 53.3498 123.358 53.6312C123.091 53.9125 122.958 54.2471 122.958 54.6348C122.958 54.9922 123.069 55.2849 123.289 55.5131C123.51 55.7336 123.787 55.9122 124.122 56.0491C124.456 56.186 124.798 56.3 125.148 56.3913L128 57.1668C128.425 57.2809 128.897 57.433 129.414 57.623C129.931 57.8055 130.425 58.0641 130.897 58.3986C131.376 58.7256 131.767 59.159 132.071 59.6988C132.383 60.2387 132.539 60.923 132.539 61.7518C132.539 62.6338 132.353 63.4056 131.98 64.0671C131.615 64.721 131.121 65.2647 130.497 65.6981C129.874 66.1239 129.167 66.4432 128.376 66.6561C127.593 66.869 126.783 66.9755 125.947 66.9755ZM159.499 66.6333V53.1065H154.321V50.2095H167.779V53.1065H162.601V66.6333H159.499ZM190.256 66.6333V50.2095H200.977V53.1065H193.358V56.6194H199.608V59.5163H193.358V63.7363H200.977V66.6333H190.256ZM224.354 66.6333V50.2095H231.289C231.449 50.2095 231.661 50.2172 231.928 50.2324C232.201 50.24 232.445 50.2628 232.657 50.3008C233.638 50.4529 234.441 50.776 235.064 51.2702C235.695 51.7645 236.159 52.388 236.455 53.1407C236.752 53.8859 236.9 54.7185 236.9 55.6385C236.9 57.0148 236.558 58.1933 235.874 59.1742C235.189 60.1474 234.117 60.7481 232.657 60.9762L231.289 61.0675H227.457V66.6333H224.354ZM233.616 66.6333L230.376 59.9497L233.57 59.3339L237.128 66.6333H233.616ZM227.457 58.1705H231.152C231.312 58.1705 231.487 58.1629 231.677 58.1477C231.867 58.1325 232.042 58.1021 232.201 58.0565C232.619 57.9424 232.943 57.7523 233.171 57.4862C233.399 57.2125 233.555 56.9121 233.638 56.5852C233.73 56.2506 233.775 55.9351 233.775 55.6385C233.775 55.342 233.73 55.0302 233.638 54.7033C233.555 54.3687 233.399 54.0684 233.171 53.8022C232.943 53.5285 232.619 53.3346 232.201 53.2206C232.042 53.1749 231.867 53.1445 231.677 53.1293C231.487 53.1141 231.312 53.1065 231.152 53.1065H227.457V58.1705Z" fill="#969698"/>
</svg>
