<svg width="65" height="65" viewBox="0 0 65 65" fill="none" xmlns="http://www.w3.org/2000/svg">
<circle cx="32.3807" cy="32.6477" r="32.1135" fill="#815AF0"/>
<g clip-path="url(#clip0_41_233)">
<path d="M20.1364 44.8919C18.5261 43.2857 17.249 41.3772 16.3786 39.2759C15.5082 37.1746 15.0616 34.9221 15.0645 32.6477C15.0645 23.084 22.817 15.3315 32.3807 15.3315C41.9444 15.3315 49.6968 23.084 49.6968 32.6477C49.6968 42.2114 41.9444 49.9638 32.3807 49.9638H15.0645L20.1364 44.8919ZM30.649 22.258V43.0373H34.1123V22.258H30.649ZM23.7226 27.4528V37.8425H27.1858V27.4528H23.7226ZM37.5755 27.4528V37.8425H41.0387V27.4528H37.5755Z" fill="white"/>
</g>
<defs>
<clipPath id="clip0_41_233">
<rect width="41.5587" height="41.5587" fill="white" transform="translate(11.6013 11.8687)"/>
</clipPath>
</defs>
</svg>
