<svg width="66" height="65" viewBox="0 0 66 65" fill="none" xmlns="http://www.w3.org/2000/svg">
<circle cx="32.8878" cy="32.8699" r="32.1135" fill="#815AF0"/>
<g clip-path="url(#clip0_41_285)">
<path d="M15.5717 19.0046C15.5749 18.5499 15.7568 18.1146 16.0782 17.7929C16.3996 17.4712 16.8347 17.2888 17.2895 17.2852H48.4862C49.4351 17.2852 50.204 18.0557 50.204 19.0046V46.7347C50.2008 47.1895 50.0189 47.6247 49.6975 47.9464C49.376 48.2682 48.941 48.4506 48.4862 48.4542H17.2895C16.8337 48.4537 16.3968 48.2724 16.0747 47.9499C15.7526 47.6275 15.5717 47.1904 15.5717 46.7347V19.0046ZM30.5017 26.6618C30.3975 26.5923 30.2763 26.5523 30.1512 26.5462C30.0261 26.5401 29.9016 26.568 29.7911 26.627C29.6806 26.686 29.5881 26.7738 29.5236 26.8812C29.4591 26.9886 29.4249 27.1115 29.4246 27.2367V38.5026C29.4249 38.6279 29.4591 38.7508 29.5236 38.8581C29.5881 38.9655 29.6806 39.0534 29.7911 39.1124C29.9016 39.1714 30.0261 39.1993 30.1512 39.1931C30.2763 39.187 30.3975 39.147 30.5017 39.0775L38.9502 33.4463C39.0452 33.3831 39.1231 33.2973 39.177 33.1968C39.2309 33.0962 39.2591 32.9838 39.2591 32.8697C39.2591 32.7555 39.2309 32.6432 39.177 32.5426C39.1231 32.442 39.0452 32.3563 38.9502 32.293L30.5 26.6618H30.5017Z" fill="white"/>
</g>
<defs>
<clipPath id="clip0_41_285">
<rect width="41.5587" height="41.5587" fill="white" transform="translate(12.1087 12.0903)"/>
</clipPath>
</defs>
</svg>
