<svg width="25" height="26" viewBox="0 0 25 26" fill="none" xmlns="http://www.w3.org/2000/svg">
<path d="M12.5 0.5C15.8962 0.5 16.32 0.5125 17.6525 0.575C18.9837 0.6375 19.89 0.84625 20.6875 1.15625C21.5125 1.47375 22.2075 1.90375 22.9025 2.5975C23.5381 3.22237 24.0299 3.97824 24.3438 4.8125C24.6525 5.60875 24.8625 6.51625 24.925 7.8475C24.9838 9.18 25 9.60375 25 13C25 16.3962 24.9875 16.82 24.925 18.1525C24.8625 19.4837 24.6525 20.39 24.3438 21.1875C24.0308 22.0222 23.5389 22.7783 22.9025 23.4025C22.2775 24.0379 21.5216 24.5297 20.6875 24.8438C19.8912 25.1525 18.9837 25.3625 17.6525 25.425C16.32 25.4838 15.8962 25.5 12.5 25.5C9.10375 25.5 8.68 25.4875 7.3475 25.425C6.01625 25.3625 5.11 25.1525 4.3125 24.8438C3.47791 24.5306 2.72191 24.0387 2.0975 23.4025C1.46176 22.7777 0.969914 22.0218 0.65625 21.1875C0.34625 20.3912 0.1375 19.4837 0.0749999 18.1525C0.0162499 16.82 0 16.3962 0 13C0 9.60375 0.0124999 9.18 0.0749999 7.8475C0.1375 6.515 0.34625 5.61 0.65625 4.8125C0.969045 3.97772 1.461 3.22165 2.0975 2.5975C2.72209 1.96154 3.47804 1.46966 4.3125 1.15625C5.11 0.84625 6.015 0.6375 7.3475 0.575C8.68 0.51625 9.10375 0.5 12.5 0.5ZM12.5 6.75C10.8424 6.75 9.25268 7.40848 8.08058 8.58058C6.90848 9.75268 6.25 11.3424 6.25 13C6.25 14.6576 6.90848 16.2473 8.08058 17.4194C9.25268 18.5915 10.8424 19.25 12.5 19.25C14.1576 19.25 15.7473 18.5915 16.9194 17.4194C18.0915 16.2473 18.75 14.6576 18.75 13C18.75 11.3424 18.0915 9.75268 16.9194 8.58058C15.7473 7.40848 14.1576 6.75 12.5 6.75ZM20.625 6.4375C20.625 6.0231 20.4604 5.62567 20.1674 5.33265C19.8743 5.03962 19.4769 4.875 19.0625 4.875C18.6481 4.875 18.2507 5.03962 17.9576 5.33265C17.6646 5.62567 17.5 6.0231 17.5 6.4375C17.5 6.8519 17.6646 7.24933 17.9576 7.54235C18.2507 7.83538 18.6481 8 19.0625 8C19.4769 8 19.8743 7.83538 20.1674 7.54235C20.4604 7.24933 20.625 6.8519 20.625 6.4375ZM12.5 9.25C13.4946 9.25 14.4484 9.64509 15.1517 10.3483C15.8549 11.0516 16.25 12.0054 16.25 13C16.25 13.9946 15.8549 14.9484 15.1517 15.6517C14.4484 16.3549 13.4946 16.75 12.5 16.75C11.5054 16.75 10.5516 16.3549 9.84835 15.6517C9.14509 14.9484 8.75 13.9946 8.75 13C8.75 12.0054 9.14509 11.0516 9.84835 10.3483C10.5516 9.64509 11.5054 9.25 12.5 9.25Z" fill="white"/>
</svg>
