<svg width="27" height="22" viewBox="0 0 27 22" fill="none" xmlns="http://www.w3.org/2000/svg">
<path d="M26.2026 3.06966C25.2483 3.49178 24.2363 3.76901 23.2001 3.89216C24.2923 3.23896 25.1098 2.21093 25.5001 0.999664C24.4751 1.60966 23.3514 2.03716 22.1801 2.26841C21.3934 1.42664 20.3506 0.868368 19.2138 0.680395C18.0771 0.492422 16.91 0.685278 15.8942 1.22898C14.8784 1.77268 14.0706 2.63677 13.5965 3.6869C13.1224 4.73704 13.0086 5.91439 13.2726 7.03591C11.194 6.93173 9.16054 6.39157 7.30423 5.45049C5.44793 4.50942 3.81029 3.18847 2.49763 1.57341C2.03299 2.37148 1.78882 3.2787 1.79013 4.20216C1.79013 6.01466 2.71263 7.61591 4.11513 8.55341C3.28514 8.52728 2.47342 8.30314 1.74763 7.89966V7.96466C1.74788 9.17179 2.16559 10.3417 2.92994 11.276C3.69428 12.2103 4.75823 12.8515 5.94138 13.0909C5.1709 13.2997 4.36301 13.3305 3.57888 13.1809C3.91246 14.22 4.56264 15.1287 5.43837 15.7798C6.3141 16.4309 7.37154 16.7919 8.46263 16.8122C7.37823 17.6638 6.1366 18.2934 4.80873 18.6649C3.48086 19.0364 2.09279 19.1425 0.723877 18.9772C3.1135 20.514 5.89525 21.3298 8.73638 21.3272C18.3526 21.3272 23.6114 13.3609 23.6114 6.45216C23.6114 6.22716 23.6051 5.99966 23.5951 5.77716C24.6187 5.03737 25.5021 4.12094 26.2039 3.07091L26.2026 3.06966Z" fill="white"/>
</svg>
