<svg width="65" height="65" viewBox="0 0 65 65" fill="none" xmlns="http://www.w3.org/2000/svg">
<circle cx="32.1587" cy="32.6477" r="32.1135" fill="#815AF0"/>
<path d="M28.5102 46.197V40.3994C28.5102 38.1777 30.2332 36.4304 32.7822 35.433C31.1384 34.8216 29.3983 34.5096 27.6444 34.5117C24.3715 34.5117 21.3481 35.5802 18.9047 37.3863C19.6623 39.5289 20.9343 41.4528 22.6091 42.989C24.2839 44.5252 26.3103 45.6268 28.5102 46.197ZM43.8874 39.8556C43.2034 38.9327 40.9263 37.975 38.0344 37.975C34.5607 37.975 31.9736 39.3552 31.9736 40.3994V46.6334C34.3768 46.6347 36.7391 46.0105 38.828 44.8221C40.9169 43.6338 42.6605 41.9222 43.8874 39.8556ZM27.731 31.9142C28.7643 31.9142 29.7554 31.5037 30.486 30.773C31.2167 30.0423 31.6272 29.0513 31.6272 28.018C31.6272 26.9846 31.2167 25.9936 30.486 25.2629C29.7554 24.5322 28.7643 24.1217 27.731 24.1217C26.6976 24.1217 25.7066 24.5322 24.9759 25.2629C24.2452 25.9936 23.8347 26.9846 23.8347 28.018C23.8347 29.0513 24.2452 30.0423 24.9759 30.773C25.7066 31.5037 26.6976 31.9142 27.731 31.9142ZM38.0344 33.6459C38.9529 33.6459 39.8338 33.281 40.4833 32.6315C41.1328 31.982 41.4977 31.1011 41.4977 30.1825C41.4977 29.264 41.1328 28.3831 40.4833 27.7336C39.8338 27.0841 38.9529 26.7192 38.0344 26.7192C37.1159 26.7192 36.2349 27.0841 35.5854 27.7336C34.9359 28.3831 34.5711 29.264 34.5711 30.1825C34.5711 31.1011 34.9359 31.982 35.5854 32.6315C36.2349 33.281 37.1159 33.6459 38.0344 33.6459ZM31.9736 50.0967C22.4096 50.0967 14.6569 42.344 14.6569 32.78C14.6569 23.2161 22.4096 15.4634 31.9736 15.4634C41.5376 15.4634 49.2902 23.2161 49.2902 32.78C49.2902 42.344 41.5376 50.0967 31.9736 50.0967Z" fill="white"/>
</svg>
